<?xml version="1.0" encoding="UTF-8"?>
<svg id="Capa_1" xmlns="http://www.w3.org/2000/svg" version="1.1" xmlns:xlink="http://www.w3.org/1999/xlink" viewBox="0 0 844.9 206.6">
  <!-- Generator: Adobe Illustrator 29.5.1, SVG Export Plug-In . SVG Version: 2.1.0 Build 141)  -->
  <defs>
    <style>
      .st0 {
        fill: #afaeae;
        font-family: Quicksand-Regular, Quicksand;
        font-size: 38.4px;
        letter-spacing: .2em;
      }

      .st1 {
        fill: url(#Degradado_sin_nombre_24);
      }

      .st2 {
        fill: #f20c0c;
      }

      .st3 {
        display: none;
        fill: #1d1d1b;
        stroke: #1d1d1b;
      }

      .st3, .st4 {
        stroke-miterlimit: 10;
      }

      .st5 {
        fill: url(#Degradado_sin_nombre_2);
      }

      .st6 {
        fill: url(#Degradado_sin_nombre_23);
      }

      .st7 {
        fill: url(#Degradado_sin_nombre_21);
      }

      .st4 {
        fill: #fff;
        stroke: url(#Degradado_sin_nombre_10);
      }

      .st8 {
        fill: url(#Degradado_sin_nombre_22);
      }
    </style>
    <linearGradient id="Degradado_sin_nombre_2" data-name="Degradado sin nombre 2" x1="263.2" y1="85.8" x2="320" y2="85.8" gradientUnits="userSpaceOnUse">
      <stop offset="0" stop-color="#fff"/>
      <stop offset="1" stop-color="#1d1d1b"/>
    </linearGradient>
    <linearGradient id="Degradado_sin_nombre_21" data-name="Degradado sin nombre 2" x1="342.8" x2="384" xlink:href="#Degradado_sin_nombre_2"/>
    <linearGradient id="Degradado_sin_nombre_22" data-name="Degradado sin nombre 2" x1="393.6" x2="444.3" xlink:href="#Degradado_sin_nombre_2"/>
    <linearGradient id="Degradado_sin_nombre_23" data-name="Degradado sin nombre 2" x1="455.8" y1="85.9" x2="508.2" y2="85.9" xlink:href="#Degradado_sin_nombre_2"/>
    <linearGradient id="Degradado_sin_nombre_24" data-name="Degradado sin nombre 2" x1="520.8" x2="562" xlink:href="#Degradado_sin_nombre_2"/>
    <linearGradient id="Degradado_sin_nombre_10" data-name="Degradado sin nombre 10" x1="163.6" y1="165.8" x2="163.6" y2="40.8" gradientUnits="userSpaceOnUse">
      <stop offset=".5" stop-color="#fff"/>
      <stop offset=".5" stop-color="#f20c0c"/>
    </linearGradient>
  </defs>
  <rect class="st3" x="-72.4" y="-390.3" width="988.4" height="776.7"/>
  <g>
    <g>
      <text class="st0" transform="translate(260.7 160.3) scale(1 1)"><tspan x="0" y="0">CALIDAD QUE ARDE</tspan></text>
      <g>
        <g>
          <g>
            <path class="st5" d="M291.7,95h-.2c-1.8,0-3.3-.7-4.3-2.2l-13.5-18.9v39.7c0,1.4-.5,2.7-1.6,3.7-1,1-2.3,1.5-3.7,1.5s-2.7-.5-3.7-1.5c-1-1-1.5-2.2-1.5-3.7v-55.6c0-1.4.5-2.7,1.5-3.7,1-1,2.2-1.5,3.7-1.5h.3c1.8,0,3.2.7,4.1,2.2l18.8,26,18.8-26c1.1-1.4,2.5-2.2,4.2-2.2h0c1.4,0,2.7.6,3.7,1.6,1,1,1.6,2.2,1.6,3.6v55.6c0,1.4-.5,2.6-1.6,3.6-1,1-2.3,1.6-3.7,1.6s-2.7-.5-3.7-1.5c-1-1-1.5-2.2-1.5-3.7v-39.7l-13.6,18.9c-1.1,1.4-2.5,2.2-4.2,2.2Z"/>
            <path class="st7" d="M348,118.8c-1.4,0-2.7-.5-3.7-1.5-1-1-1.5-2.2-1.5-3.7v-55.6c0-1.4.5-2.7,1.5-3.7,1-1,2.2-1.5,3.7-1.5h30.8c1.4,0,2.6.5,3.6,1.5,1,1,1.6,2.2,1.6,3.7s-.5,2.7-1.6,3.7c-1,1-2.2,1.6-3.6,1.6h-25.6v17.3h22c1.4,0,2.6.5,3.6,1.6,1,1,1.6,2.3,1.6,3.7s-.5,2.6-1.5,3.7c-1,1-2.2,1.6-3.7,1.6h-22v17.4h25.6c1.4,0,2.6.5,3.6,1.6,1,1,1.6,2.3,1.6,3.7s-.5,2.6-1.6,3.7c-1,1-2.2,1.6-3.6,1.6h-30.7c0,0,0,0,0,0Z"/>
            <path class="st8" d="M442.8,54.3c1,1,1.5,2.2,1.5,3.7s-.5,2.7-1.6,3.7c-1,1-2.2,1.6-3.6,1.6h-15v50.4c0,1.4-.5,2.7-1.5,3.7-1,1-2.2,1.5-3.7,1.5s-2.7-.5-3.7-1.5c-1-1-1.5-2.2-1.5-3.7v-50.4h-14.9c-1.4,0-2.7-.5-3.7-1.6-1-1-1.5-2.3-1.5-3.7s.5-2.7,1.5-3.7c1-1,2.2-1.5,3.7-1.5h40.3c1.4,0,2.7.5,3.7,1.5Z"/>
            <path class="st6" d="M498.1,115.5l-4.6-12.3h-22.9l-4.6,12.3c-.9,2.2-2.4,3.3-4.6,3.3s-3.7-.8-4.7-2.3c-.9-1.5-1.1-3.1-.6-4.8l20.8-55.6c.4-1,1.1-1.8,2-2.5.9-.6,1.9-.9,3-.8,2.4-.1,4.1,1,5,3.3l20.8,55.6c.6,1.6.4,3.2-.6,4.8-.9,1.5-2.5,2.3-4.7,2.3s-3.7-1.1-4.5-3.3ZM474.4,92.9h15.3l-7.6-20.3-7.6,20.3Z"/>
            <path class="st1" d="M526,118.8c-1.4,0-2.7-.5-3.7-1.5-1-1-1.5-2.2-1.5-3.7v-55.6c0-1.4.5-2.7,1.5-3.7s2.2-1.5,3.7-1.5,2.7.5,3.7,1.5,1.6,2.2,1.6,3.7v50.4h25.6c1.4,0,2.6.5,3.6,1.6,1,1,1.6,2.3,1.6,3.7s-.5,2.6-1.6,3.7c-1,1-2.2,1.6-3.6,1.6h-30.8Z"/>
          </g>
          <path class="st2" d="M622.7,89.1h-18c-.7,0-1.3-.2-1.7-.7-.4-.4-.7-1-.7-1.6s.2-1.2.7-1.7,1-.7,1.7-.7h20.7c.6,0,1.1.3,1.5.8.4.4.6,1,.6,1.6v23c-.1.8-.4,1.3-.8,1.7-6.1,4.8-13.2,7.3-21.3,7.3-9.5,0-17.6-3.3-24.3-9.9-6.7-6.5-10-14.4-10-23.6s3.3-17.1,10-23.7c6.7-6.5,14.8-9.8,24.3-9.8s15,2.5,21.4,7.5c.4.3.7.8.8,1.5,0,.7,0,1.2-.5,1.7-.9,1.1-2,1.3-3.3.4-5.2-4.3-11.3-6.4-18.4-6.4s-15.2,2.8-21,8.4c-5.8,5.6-8.7,12.4-8.7,20.4s2.9,14.8,8.7,20.4c5.8,5.6,12.8,8.4,21,8.4s12.3-1.9,17.5-5.7v-19.4Z"/>
          <path class="st2" d="M695.6,118.8h-.8c-1.1,0-1.8-.4-2.2-1.4l-5.8-15.6h-30.1l-5.8,15.6c-.4,1-1.1,1.5-2.2,1.5h-.8c-.6-.3-1-.8-1.3-1.4-.3-.6-.3-1.2,0-1.7l22.9-61.2c.4-.9,1.2-1.4,2.4-1.4s1.9.5,2.2,1.4l22.9,61.2c.3.6.3,1.1,0,1.7-.3.6-.7,1-1.2,1.3ZM671.8,61.7l-13.4,35.5h26.7l-13.3-35.5Z"/>
          <path class="st2" d="M714.3,69c.1,6.3,6.5,10.6,19.1,13h.2c7.2,1.3,12.8,3.3,16.8,6,4.8,3.1,7.3,7.3,7.3,12.5s-2.4,9.5-7.3,13.1c-4.9,3.5-10.6,5.3-17.1,5.3-8.3,0-16.4-3.2-24.3-9.5-1-.9-1.1-1.9-.3-2.9.4-.4.8-.7,1.4-.8.6,0,1.1,0,1.5.5,7.1,5.7,14.3,8.6,21.7,8.5,5.8,0,10.6-1.4,14.5-4.3,3.8-2.7,5.7-6,5.7-9.8,0-7-6.9-11.9-20.7-14.4h-.2c-14.9-2.8-22.4-8.5-22.4-17.1s2.2-9,6.7-12.3c4.5-3.3,9.9-4.9,16.1-4.9s5.4.5,8.2,1.4c2.7.9,4.9,1.8,6.4,2.6s3.5,2.1,5.8,3.6c1.1.8,1.3,1.7.6,2.9-.7,1.1-1.6,1.3-2.8.6-2.3-1.4-4.1-2.6-5.5-3.4-1.4-.8-3.3-1.6-5.7-2.4-2.4-.8-4.7-1.2-6.9-1.2-5.3,0-9.8,1.3-13.5,4-3.5,2.6-5.2,5.6-5.2,9.1Z"/>
        </g>
        <path class="st2" d="M826.2,137.1c-23.3,4.7-61.4-7.9-54.5-53.8,3.1,16.4,9.9,30.5,19.8,31.9-21.6-30,6.4-66.2-30.9-76.8,18.1,1.7,37.3,1.5,52.1,20.7,18.3,23.7-8.3,72,13.5,78Z"/>
        <path class="st2" d="M194.6,137.7c23.3,4.7,61.4-7.9,54.5-53.8-3.1,16.4-9.9,30.5-19.8,31.9,21.6-30-6.4-66.2,30.9-76.8-18.1,1.7-37.3,1.5-52.1,20.7-18.3,23.7,8.3,72-13.5,78Z"/>
      </g>
    </g>
    <g>
      <path class="st2" d="M72.3,31.2s-20,46,12.9,55.2c0,0,19.5,5.4,21.4-20.9,0,0,8.8,5.2,8.3,21.8s-.8,7.7-1.9,11.4l-4.1,14.3s-4,11.7,8.2,15.5c0,0,17.9,6.1,17.1-23.7,0,0,18.8,27.7-8,55.7,0,0-16,15.5-38.5,15,0,0,29.8-10.6,26.3-33.6,0,0-7.6,13.8-16.6,11-3.5-1.1-5.9-4.4-6-8.1-.3-10-2.8-37.9-22.3-50.3,0,0,15.2,31.5,0,48.5s-5.1,4.4-8.3,5.3c-5.7,1.5-14.9.4-20.4-17.6,0,0-2.1,32.9,27.5,44.9,0,0-41.1-.5-48.9-44.4,0,0-4-22.5,9.4-39.9,0,0-2.3,21.4,12,22.8,0,0,12.5,1.9,13.1-13s-.3-5-.9-7.4c-2.3-8.2-8.3-34.9,3.9-50.8.3-.4.6-.8.9-1.3,1.3-1.8,6-7.7,14.7-10.3Z"/>
      <rect class="st4" x="163" y="41.3" width="1.1" height="124"/>
    </g>
  </g>
</svg>